<svg xmlns="http://www.w3.org/2000/svg" viewBox="3780.99 -18261.025 48.163 36.025">
  <defs>
    <style>
      .cls-1 {
        fill: #06238c;
      }
    </style>
  </defs>
  <g id="noun_62199_cc" transform="translate(3775.99 -18277.368)">
    <path id="Path_84" data-name="Path 84" class="cls-1" d="M59.148,52.368H70.665A5.235,5.235,0,0,0,75.9,47.132V35.615a5.235,5.235,0,0,0-5.235-5.236H61.242v-.7a6.021,6.021,0,0,1,6.02-6.008,3.665,3.665,0,1,0,0-7.329,13.361,13.361,0,0,0-13.35,13.338V47.132A5.235,5.235,0,0,0,59.148,52.368Z" transform="translate(-48.913 0)"/>
    <path id="Path_85" data-name="Path 85" class="cls-1" d="M10.236,52.368H21.752a5.235,5.235,0,0,0,5.235-5.236V35.615a5.236,5.236,0,0,0-5.236-5.236H12.329v-.7a6.021,6.021,0,0,1,6.02-6.008,3.665,3.665,0,0,0,0-7.329A13.358,13.358,0,0,0,5,29.677V47.132A5.236,5.236,0,0,0,10.236,52.368Z" transform="translate(26.176 0)"/>
  </g>
</svg>
