<svg xmlns="http://www.w3.org/2000/svg" viewBox="3275 -19542 85.728 85.727">
  <defs>
    <style>
      .cls-1 {
        fill: #06238c;
      }

      .cls-2 {
        fill: #fff;
      }
    </style>
  </defs>
  <g id="Group_55" data-name="Group 55" transform="translate(3046 -21369)">
    <circle id="Ellipse_1" data-name="Ellipse 1" class="cls-1" cx="42.864" cy="42.864" r="42.864" transform="translate(229 1827)"/>
    <g id="noun_651722_cc" transform="translate(232.053 1826.496)">
      <path id="Path_114" data-name="Path 114" class="cls-2" d="M20.575,57.617a18.1,18.1,0,0,0,11.691-2.029,15.621,15.621,0,0,0,2.216,1.142h0q.669.278,1.36.5h.105a14.178,14.178,0,0,0,1.45.376h0c.451.09.909.158,1.367.21h.308c.473.045.954.075,1.435.075h0a15.789,15.789,0,0,0,1.618-.083H42.2A15.672,15.672,0,0,0,56.225,42.32a7.854,7.854,0,0,0-.068-1.262,2.021,2.021,0,0,0,0-.361,1.059,1.059,0,0,0-.053-.225,15.672,15.672,0,0,0-15.53-13.8h0A15.672,15.672,0,0,0,24.9,42.32a15.334,15.334,0,0,0,.316,3.005,1.442,1.442,0,0,0,.068.3q.12.526.27,1.052c.045.158.09.316.143.466s.053.2.09.293a7,7,0,0,1-5.259,8.1,1.052,1.052,0,0,0,.045,2.081ZM27.7,46.527l-.053-.165a15.3,15.3,0,0,0,2.787.631c.751.113,1.638.188,2.532.24a21.886,21.886,0,0,0,2.652,6.454,13.276,13.276,0,0,0,1.24,1.645,13.465,13.465,0,0,1-1.548-.533h-.038a12.761,12.761,0,0,1-1.15-.556h0A13.614,13.614,0,0,1,27.7,46.527Zm-.586-2.8a1.015,1.015,0,0,0,0-.105c-.038-.428-.068-.856-.068-1.292A13.524,13.524,0,0,1,34.3,30.306a13.193,13.193,0,0,0-.887,1.878,24.636,24.636,0,0,0-1.127,10.969c.068.646.165,1.285.27,1.916-3.306-.2-5.214-.872-5.447-1.345Zm21.946,1.841a20.5,20.5,0,0,0,4.981-1.916,13.569,13.569,0,0,1-7.122,10.624,13.209,13.209,0,0,0,.872-1.848,21.878,21.878,0,0,0,1.262-6.86Zm0-2.186c0-.639-.068-1.277-.128-1.931A24.651,24.651,0,0,0,45.579,30.93a13.2,13.2,0,0,0-1.24-1.638,13.576,13.576,0,0,1,9.7,11.66c-.218.571-1.938,1.548-4.989,2.427Zm-14.7-.413a22.54,22.54,0,0,1,.984-10.038c.932-2.457,2.322-3.959,3.832-4.117h.27c1.435,0,3.005,1.165,4.328,3.253a22.54,22.54,0,0,1,3.005,9.587q.113,1.127.135,2.254a51.838,51.838,0,0,1-6.1.984,52,52,0,0,1-6.176.293c-.1-.714-.21-1.458-.293-2.216Zm1,4.335a55.739,55.739,0,0,0,5.718-.308,57.265,57.265,0,0,0,5.875-.917,19.264,19.264,0,0,1-1.134,5.635c-.909,2.412-2.254,3.9-3.757,4.095h-.113c-1.5.143-3.163-1.037-4.568-3.238a19.249,19.249,0,0,1-2.254-5.259h.2Zm-7.7,3.862a15.778,15.778,0,0,0,2.727,3.005,15.936,15.936,0,0,1-5.62,1.5,9.068,9.068,0,0,0,2.893-4.508Z"/>
    </g>
  </g>
</svg>
