<svg xmlns="http://www.w3.org/2000/svg" viewBox="3275 -19714 85.728 85.727">
  <defs>
    <style>
      .cls-1 {
        fill: #06238c;
      }

      .cls-2 {
        fill: #fff;
      }
    </style>
  </defs>
  <g id="Group_55" data-name="Group 55" transform="translate(3046 -21541)">
    <circle id="Ellipse_1" data-name="Ellipse 1" class="cls-1" cx="42.864" cy="42.864" r="42.864" transform="translate(229 1827)"/>
    <g id="noun_1568698_cc" transform="translate(243.549 1828.852)">
      <g id="Group_268" data-name="Group 268" transform="translate(6.643 19)">
        <path id="Path_104" data-name="Path 104" class="cls-2" d="M24.614,74.894a1.942,1.942,0,0,0,.9.242,1.366,1.366,0,0,0,1.064-.482,1.662,1.662,0,0,0,.313-1.416l-.346-2.011L28.014,69.8a1.49,1.49,0,0,0-.87-2.679l-2.029-.294L24.208,65a1.493,1.493,0,0,0-2.818,0l-.907,1.831-2.029.294a1.49,1.49,0,0,0-.871,2.679l1.466,1.425L18.7,73.237a1.663,1.663,0,0,0,.312,1.417,1.548,1.548,0,0,0,1.966.241l1.816-.951Zm-3.983-1.911.413-2.405-1.75-1.7,2.419-.35L22.8,66.336l1.086,2.192,2.418.35-1.75,1.7.414,2.405L22.8,71.848Z" transform="translate(-16.998 -43.12)"/>
        <path id="Path_106" data-name="Path 106" class="cls-2" d="M96.144,67.125l-2.029-.294L93.209,65a1.493,1.493,0,0,0-2.819,0l-.907,1.831-2.029.294a1.49,1.49,0,0,0-.87,2.679l1.466,1.424-.346,2.01a1.663,1.663,0,0,0,.313,1.416,1.551,1.551,0,0,0,1.967.24l1.815-.951,1.816.951a1.944,1.944,0,0,0,.9.242,1.364,1.364,0,0,0,1.064-.483,1.66,1.66,0,0,0,.312-1.415l-.345-2.01L97.014,69.8a1.49,1.49,0,0,0-.87-2.679Zm-2.591,3.454.413,2.405L91.8,71.848l-2.168,1.136.414-2.405-1.75-1.7,2.418-.35L91.8,66.336l1.085,2.192,2.419.35Z" transform="translate(-53.982 -43.12)"/>
        <path id="Path_108" data-name="Path 108" class="cls-2" d="M54.888,34.776A7.888,7.888,0,1,0,47,26.887,7.888,7.888,0,0,0,54.888,34.776Zm0-13.92a6.032,6.032,0,1,1-6.032,6.031A6.039,6.039,0,0,1,54.888,20.856Z" transform="translate(-33.079 -19)"/>
        <path id="Path_109" data-name="Path 109" class="cls-2" d="M59.537,82.8l2.439-2.488a2.045,2.045,0,0,0,.646-2.072,1.993,1.993,0,0,0-1.711-1.248l-3.338-.507-1.5-3.182a1.785,1.785,0,0,0-3.438,0l-1.5,3.181-3.339.507a1.992,1.992,0,0,0-1.712,1.249,2.042,2.042,0,0,0,.645,2.07l2.44,2.489-.577,3.523a2.149,2.149,0,0,0,.384,1.823,1.861,1.861,0,0,0,2.4.225l2.977-1.637,2.976,1.637a2.425,2.425,0,0,0,1.165.332,1.589,1.589,0,0,0,1.235-.557,2.147,2.147,0,0,0,.386-1.821Zm-1.254,3.825a1.548,1.548,0,0,1,.018.159c-.024-.011-.05-.024-.078-.04l-3.87-2.128-3.871,2.128-.078.04a1.444,1.444,0,0,1,.018-.159l.729-4.452-3.1-3.161a1.292,1.292,0,0,1-.129-.152,1.183,1.183,0,0,1,.15-.032l4.317-.656L54.312,74.1c.014-.029.027-.056.04-.08.013.024.027.051.041.081l1.921,4.076,4.316.656a1.158,1.158,0,0,1,.15.032,1.3,1.3,0,0,1-.13.153l-3.1,3.161Z" transform="translate(-32.542 -47.408)"/>
        <path id="Path_110" data-name="Path 110" class="cls-2" d="M35.467,57.706a11.136,11.136,0,0,1,1.75-2.381,11.514,11.514,0,0,1,5.8-3.095A9.8,9.8,0,0,1,41.2,50.807a12.512,12.512,0,0,0-6.859,5.18,3.913,3.913,0,0,1,.825,1.118Z" transform="translate(-26.296 -36.048)"/>
        <path id="Path_111" data-name="Path 111" class="cls-2" d="M30.431,91.287a.541.541,0,0,1-.55-.447c0-.1,0-.2,0-.3-.073-.033-.147-.062-.22-.1l-.954-.5-.689.361c0,.2.007.391.012.584a2.39,2.39,0,0,0,2.405,2.253h7.1l.015-.1-1.726-1.761Z" transform="translate(-22.902 -57.026)"/>
        <path id="Path_112" data-name="Path 112" class="cls-2" d="M74.743,52.4a11.806,11.806,0,0,1,5.712,3.122,11.585,11.585,0,0,1,1.84,2.494l.4-.8a3.964,3.964,0,0,1,.687-.978A12.915,12.915,0,0,0,76.565,51,9.788,9.788,0,0,1,74.743,52.4Z" transform="translate(-47.949 -36.151)"/>
        <path id="Path_113" data-name="Path 113" class="cls-2" d="M87.336,90.444c-.07.037-.143.059-.213.091,0,.107,0,.21,0,.318a.536.536,0,0,1-.541.434h-5.4l-1.726,1.761.015.1H86.58a2.377,2.377,0,0,0,2.4-2.253c0-.193.006-.387.007-.582l-.694-.364Z" transform="translate(-50.471 -57.026)"/>
      </g>
    </g>
  </g>
</svg>
